%TF.GenerationSoftware,KiCad,Pcbnew,8.0.3*%
%TF.CreationDate,2024-07-06T18:49:22-04:00*%
%TF.ProjectId,Temperature Box Electronics,54656d70-6572-4617-9475-726520426f78,rev?*%
%TF.SameCoordinates,Original*%
%TF.FileFunction,Legend,Top*%
%TF.FilePolarity,Positive*%
%FSLAX46Y46*%
G04 Gerber Fmt 4.6, Leading zero omitted, Abs format (unit mm)*
G04 Created by KiCad (PCBNEW 8.0.3) date 2024-07-06 18:49:22*
%MOMM*%
%LPD*%
G01*
G04 APERTURE LIST*
%ADD10C,0.150000*%
%ADD11C,0.375000*%
%ADD12C,0.500000*%
%ADD13C,0.120000*%
G04 APERTURE END LIST*
D10*
X197869819Y-111306077D02*
X197869819Y-110734649D01*
X198869819Y-111020363D02*
X197869819Y-111020363D01*
X198822200Y-110020363D02*
X198869819Y-110115601D01*
X198869819Y-110115601D02*
X198869819Y-110306077D01*
X198869819Y-110306077D02*
X198822200Y-110401315D01*
X198822200Y-110401315D02*
X198726961Y-110448934D01*
X198726961Y-110448934D02*
X198346009Y-110448934D01*
X198346009Y-110448934D02*
X198250771Y-110401315D01*
X198250771Y-110401315D02*
X198203152Y-110306077D01*
X198203152Y-110306077D02*
X198203152Y-110115601D01*
X198203152Y-110115601D02*
X198250771Y-110020363D01*
X198250771Y-110020363D02*
X198346009Y-109972744D01*
X198346009Y-109972744D02*
X198441247Y-109972744D01*
X198441247Y-109972744D02*
X198536485Y-110448934D01*
X198869819Y-109544172D02*
X198203152Y-109544172D01*
X198298390Y-109544172D02*
X198250771Y-109496553D01*
X198250771Y-109496553D02*
X198203152Y-109401315D01*
X198203152Y-109401315D02*
X198203152Y-109258458D01*
X198203152Y-109258458D02*
X198250771Y-109163220D01*
X198250771Y-109163220D02*
X198346009Y-109115601D01*
X198346009Y-109115601D02*
X198869819Y-109115601D01*
X198346009Y-109115601D02*
X198250771Y-109067982D01*
X198250771Y-109067982D02*
X198203152Y-108972744D01*
X198203152Y-108972744D02*
X198203152Y-108829887D01*
X198203152Y-108829887D02*
X198250771Y-108734648D01*
X198250771Y-108734648D02*
X198346009Y-108687029D01*
X198346009Y-108687029D02*
X198869819Y-108687029D01*
X198203152Y-108210839D02*
X199203152Y-108210839D01*
X198250771Y-108210839D02*
X198203152Y-108115601D01*
X198203152Y-108115601D02*
X198203152Y-107925125D01*
X198203152Y-107925125D02*
X198250771Y-107829887D01*
X198250771Y-107829887D02*
X198298390Y-107782268D01*
X198298390Y-107782268D02*
X198393628Y-107734649D01*
X198393628Y-107734649D02*
X198679342Y-107734649D01*
X198679342Y-107734649D02*
X198774580Y-107782268D01*
X198774580Y-107782268D02*
X198822200Y-107829887D01*
X198822200Y-107829887D02*
X198869819Y-107925125D01*
X198869819Y-107925125D02*
X198869819Y-108115601D01*
X198869819Y-108115601D02*
X198822200Y-108210839D01*
X198822200Y-106925125D02*
X198869819Y-107020363D01*
X198869819Y-107020363D02*
X198869819Y-107210839D01*
X198869819Y-107210839D02*
X198822200Y-107306077D01*
X198822200Y-107306077D02*
X198726961Y-107353696D01*
X198726961Y-107353696D02*
X198346009Y-107353696D01*
X198346009Y-107353696D02*
X198250771Y-107306077D01*
X198250771Y-107306077D02*
X198203152Y-107210839D01*
X198203152Y-107210839D02*
X198203152Y-107020363D01*
X198203152Y-107020363D02*
X198250771Y-106925125D01*
X198250771Y-106925125D02*
X198346009Y-106877506D01*
X198346009Y-106877506D02*
X198441247Y-106877506D01*
X198441247Y-106877506D02*
X198536485Y-107353696D01*
X198869819Y-106448934D02*
X198203152Y-106448934D01*
X198393628Y-106448934D02*
X198298390Y-106401315D01*
X198298390Y-106401315D02*
X198250771Y-106353696D01*
X198250771Y-106353696D02*
X198203152Y-106258458D01*
X198203152Y-106258458D02*
X198203152Y-106163220D01*
X198869819Y-105401315D02*
X198346009Y-105401315D01*
X198346009Y-105401315D02*
X198250771Y-105448934D01*
X198250771Y-105448934D02*
X198203152Y-105544172D01*
X198203152Y-105544172D02*
X198203152Y-105734648D01*
X198203152Y-105734648D02*
X198250771Y-105829886D01*
X198822200Y-105401315D02*
X198869819Y-105496553D01*
X198869819Y-105496553D02*
X198869819Y-105734648D01*
X198869819Y-105734648D02*
X198822200Y-105829886D01*
X198822200Y-105829886D02*
X198726961Y-105877505D01*
X198726961Y-105877505D02*
X198631723Y-105877505D01*
X198631723Y-105877505D02*
X198536485Y-105829886D01*
X198536485Y-105829886D02*
X198488866Y-105734648D01*
X198488866Y-105734648D02*
X198488866Y-105496553D01*
X198488866Y-105496553D02*
X198441247Y-105401315D01*
X198203152Y-105067981D02*
X198203152Y-104687029D01*
X197869819Y-104925124D02*
X198726961Y-104925124D01*
X198726961Y-104925124D02*
X198822200Y-104877505D01*
X198822200Y-104877505D02*
X198869819Y-104782267D01*
X198869819Y-104782267D02*
X198869819Y-104687029D01*
X198203152Y-103925124D02*
X198869819Y-103925124D01*
X198203152Y-104353695D02*
X198726961Y-104353695D01*
X198726961Y-104353695D02*
X198822200Y-104306076D01*
X198822200Y-104306076D02*
X198869819Y-104210838D01*
X198869819Y-104210838D02*
X198869819Y-104067981D01*
X198869819Y-104067981D02*
X198822200Y-103972743D01*
X198822200Y-103972743D02*
X198774580Y-103925124D01*
X198869819Y-103448933D02*
X198203152Y-103448933D01*
X198393628Y-103448933D02*
X198298390Y-103401314D01*
X198298390Y-103401314D02*
X198250771Y-103353695D01*
X198250771Y-103353695D02*
X198203152Y-103258457D01*
X198203152Y-103258457D02*
X198203152Y-103163219D01*
X198822200Y-102448933D02*
X198869819Y-102544171D01*
X198869819Y-102544171D02*
X198869819Y-102734647D01*
X198869819Y-102734647D02*
X198822200Y-102829885D01*
X198822200Y-102829885D02*
X198726961Y-102877504D01*
X198726961Y-102877504D02*
X198346009Y-102877504D01*
X198346009Y-102877504D02*
X198250771Y-102829885D01*
X198250771Y-102829885D02*
X198203152Y-102734647D01*
X198203152Y-102734647D02*
X198203152Y-102544171D01*
X198203152Y-102544171D02*
X198250771Y-102448933D01*
X198250771Y-102448933D02*
X198346009Y-102401314D01*
X198346009Y-102401314D02*
X198441247Y-102401314D01*
X198441247Y-102401314D02*
X198536485Y-102877504D01*
X198346009Y-100877504D02*
X198393628Y-100734647D01*
X198393628Y-100734647D02*
X198441247Y-100687028D01*
X198441247Y-100687028D02*
X198536485Y-100639409D01*
X198536485Y-100639409D02*
X198679342Y-100639409D01*
X198679342Y-100639409D02*
X198774580Y-100687028D01*
X198774580Y-100687028D02*
X198822200Y-100734647D01*
X198822200Y-100734647D02*
X198869819Y-100829885D01*
X198869819Y-100829885D02*
X198869819Y-101210837D01*
X198869819Y-101210837D02*
X197869819Y-101210837D01*
X197869819Y-101210837D02*
X197869819Y-100877504D01*
X197869819Y-100877504D02*
X197917438Y-100782266D01*
X197917438Y-100782266D02*
X197965057Y-100734647D01*
X197965057Y-100734647D02*
X198060295Y-100687028D01*
X198060295Y-100687028D02*
X198155533Y-100687028D01*
X198155533Y-100687028D02*
X198250771Y-100734647D01*
X198250771Y-100734647D02*
X198298390Y-100782266D01*
X198298390Y-100782266D02*
X198346009Y-100877504D01*
X198346009Y-100877504D02*
X198346009Y-101210837D01*
X198869819Y-100067980D02*
X198822200Y-100163218D01*
X198822200Y-100163218D02*
X198774580Y-100210837D01*
X198774580Y-100210837D02*
X198679342Y-100258456D01*
X198679342Y-100258456D02*
X198393628Y-100258456D01*
X198393628Y-100258456D02*
X198298390Y-100210837D01*
X198298390Y-100210837D02*
X198250771Y-100163218D01*
X198250771Y-100163218D02*
X198203152Y-100067980D01*
X198203152Y-100067980D02*
X198203152Y-99925123D01*
X198203152Y-99925123D02*
X198250771Y-99829885D01*
X198250771Y-99829885D02*
X198298390Y-99782266D01*
X198298390Y-99782266D02*
X198393628Y-99734647D01*
X198393628Y-99734647D02*
X198679342Y-99734647D01*
X198679342Y-99734647D02*
X198774580Y-99782266D01*
X198774580Y-99782266D02*
X198822200Y-99829885D01*
X198822200Y-99829885D02*
X198869819Y-99925123D01*
X198869819Y-99925123D02*
X198869819Y-100067980D01*
X198869819Y-99401313D02*
X198203152Y-98877504D01*
X198203152Y-99401313D02*
X198869819Y-98877504D01*
D11*
X168532424Y-111439785D02*
X168603852Y-111368357D01*
X168603852Y-111368357D02*
X168746710Y-111296928D01*
X168746710Y-111296928D02*
X169103852Y-111296928D01*
X169103852Y-111296928D02*
X169246710Y-111368357D01*
X169246710Y-111368357D02*
X169318138Y-111439785D01*
X169318138Y-111439785D02*
X169389567Y-111582642D01*
X169389567Y-111582642D02*
X169389567Y-111725500D01*
X169389567Y-111725500D02*
X169318138Y-111939785D01*
X169318138Y-111939785D02*
X168460995Y-112796928D01*
X168460995Y-112796928D02*
X169389567Y-112796928D01*
D12*
X163662280Y-116045667D02*
X163662280Y-112545667D01*
X163662280Y-112545667D02*
X165662280Y-116045667D01*
X165662280Y-116045667D02*
X165662280Y-112545667D01*
X167328947Y-116045667D02*
X167328947Y-113712334D01*
X167328947Y-112545667D02*
X167162280Y-112712334D01*
X167162280Y-112712334D02*
X167328947Y-112879001D01*
X167328947Y-112879001D02*
X167495614Y-112712334D01*
X167495614Y-112712334D02*
X167328947Y-112545667D01*
X167328947Y-112545667D02*
X167328947Y-112879001D01*
D10*
X182454819Y-101666666D02*
X181978628Y-101999999D01*
X182454819Y-102238094D02*
X181454819Y-102238094D01*
X181454819Y-102238094D02*
X181454819Y-101857142D01*
X181454819Y-101857142D02*
X181502438Y-101761904D01*
X181502438Y-101761904D02*
X181550057Y-101714285D01*
X181550057Y-101714285D02*
X181645295Y-101666666D01*
X181645295Y-101666666D02*
X181788152Y-101666666D01*
X181788152Y-101666666D02*
X181883390Y-101714285D01*
X181883390Y-101714285D02*
X181931009Y-101761904D01*
X181931009Y-101761904D02*
X181978628Y-101857142D01*
X181978628Y-101857142D02*
X181978628Y-102238094D01*
X181788152Y-100809523D02*
X182454819Y-100809523D01*
X181407200Y-101047618D02*
X182121485Y-101285713D01*
X182121485Y-101285713D02*
X182121485Y-100666666D01*
X189333333Y-109954819D02*
X189000000Y-109478628D01*
X188761905Y-109954819D02*
X188761905Y-108954819D01*
X188761905Y-108954819D02*
X189142857Y-108954819D01*
X189142857Y-108954819D02*
X189238095Y-109002438D01*
X189238095Y-109002438D02*
X189285714Y-109050057D01*
X189285714Y-109050057D02*
X189333333Y-109145295D01*
X189333333Y-109145295D02*
X189333333Y-109288152D01*
X189333333Y-109288152D02*
X189285714Y-109383390D01*
X189285714Y-109383390D02*
X189238095Y-109431009D01*
X189238095Y-109431009D02*
X189142857Y-109478628D01*
X189142857Y-109478628D02*
X188761905Y-109478628D01*
X190285714Y-109954819D02*
X189714286Y-109954819D01*
X190000000Y-109954819D02*
X190000000Y-108954819D01*
X190000000Y-108954819D02*
X189904762Y-109097676D01*
X189904762Y-109097676D02*
X189809524Y-109192914D01*
X189809524Y-109192914D02*
X189714286Y-109240533D01*
X193761905Y-102954819D02*
X193761905Y-101954819D01*
X193761905Y-101954819D02*
X194000000Y-101954819D01*
X194000000Y-101954819D02*
X194142857Y-102002438D01*
X194142857Y-102002438D02*
X194238095Y-102097676D01*
X194238095Y-102097676D02*
X194285714Y-102192914D01*
X194285714Y-102192914D02*
X194333333Y-102383390D01*
X194333333Y-102383390D02*
X194333333Y-102526247D01*
X194333333Y-102526247D02*
X194285714Y-102716723D01*
X194285714Y-102716723D02*
X194238095Y-102811961D01*
X194238095Y-102811961D02*
X194142857Y-102907200D01*
X194142857Y-102907200D02*
X194000000Y-102954819D01*
X194000000Y-102954819D02*
X193761905Y-102954819D01*
X195285714Y-102954819D02*
X194714286Y-102954819D01*
X195000000Y-102954819D02*
X195000000Y-101954819D01*
X195000000Y-101954819D02*
X194904762Y-102097676D01*
X194904762Y-102097676D02*
X194809524Y-102192914D01*
X194809524Y-102192914D02*
X194714286Y-102240533D01*
X197836779Y-116954819D02*
X197836779Y-115954819D01*
X197836779Y-115954819D02*
X198170112Y-116669104D01*
X198170112Y-116669104D02*
X198503445Y-115954819D01*
X198503445Y-115954819D02*
X198503445Y-116954819D01*
X198884398Y-115954819D02*
X199503445Y-115954819D01*
X199503445Y-115954819D02*
X199170112Y-116335771D01*
X199170112Y-116335771D02*
X199312969Y-116335771D01*
X199312969Y-116335771D02*
X199408207Y-116383390D01*
X199408207Y-116383390D02*
X199455826Y-116431009D01*
X199455826Y-116431009D02*
X199503445Y-116526247D01*
X199503445Y-116526247D02*
X199503445Y-116764342D01*
X199503445Y-116764342D02*
X199455826Y-116859580D01*
X199455826Y-116859580D02*
X199408207Y-116907200D01*
X199408207Y-116907200D02*
X199312969Y-116954819D01*
X199312969Y-116954819D02*
X199027255Y-116954819D01*
X199027255Y-116954819D02*
X198932017Y-116907200D01*
X198932017Y-116907200D02*
X198884398Y-116859580D01*
X195833333Y-105954819D02*
X195500000Y-105478628D01*
X195261905Y-105954819D02*
X195261905Y-104954819D01*
X195261905Y-104954819D02*
X195642857Y-104954819D01*
X195642857Y-104954819D02*
X195738095Y-105002438D01*
X195738095Y-105002438D02*
X195785714Y-105050057D01*
X195785714Y-105050057D02*
X195833333Y-105145295D01*
X195833333Y-105145295D02*
X195833333Y-105288152D01*
X195833333Y-105288152D02*
X195785714Y-105383390D01*
X195785714Y-105383390D02*
X195738095Y-105431009D01*
X195738095Y-105431009D02*
X195642857Y-105478628D01*
X195642857Y-105478628D02*
X195261905Y-105478628D01*
X196690476Y-104954819D02*
X196500000Y-104954819D01*
X196500000Y-104954819D02*
X196404762Y-105002438D01*
X196404762Y-105002438D02*
X196357143Y-105050057D01*
X196357143Y-105050057D02*
X196261905Y-105192914D01*
X196261905Y-105192914D02*
X196214286Y-105383390D01*
X196214286Y-105383390D02*
X196214286Y-105764342D01*
X196214286Y-105764342D02*
X196261905Y-105859580D01*
X196261905Y-105859580D02*
X196309524Y-105907200D01*
X196309524Y-105907200D02*
X196404762Y-105954819D01*
X196404762Y-105954819D02*
X196595238Y-105954819D01*
X196595238Y-105954819D02*
X196690476Y-105907200D01*
X196690476Y-105907200D02*
X196738095Y-105859580D01*
X196738095Y-105859580D02*
X196785714Y-105764342D01*
X196785714Y-105764342D02*
X196785714Y-105526247D01*
X196785714Y-105526247D02*
X196738095Y-105431009D01*
X196738095Y-105431009D02*
X196690476Y-105383390D01*
X196690476Y-105383390D02*
X196595238Y-105335771D01*
X196595238Y-105335771D02*
X196404762Y-105335771D01*
X196404762Y-105335771D02*
X196309524Y-105383390D01*
X196309524Y-105383390D02*
X196261905Y-105431009D01*
X196261905Y-105431009D02*
X196214286Y-105526247D01*
X174761905Y-96954819D02*
X174761905Y-95954819D01*
X174761905Y-95954819D02*
X175000000Y-95954819D01*
X175000000Y-95954819D02*
X175142857Y-96002438D01*
X175142857Y-96002438D02*
X175238095Y-96097676D01*
X175238095Y-96097676D02*
X175285714Y-96192914D01*
X175285714Y-96192914D02*
X175333333Y-96383390D01*
X175333333Y-96383390D02*
X175333333Y-96526247D01*
X175333333Y-96526247D02*
X175285714Y-96716723D01*
X175285714Y-96716723D02*
X175238095Y-96811961D01*
X175238095Y-96811961D02*
X175142857Y-96907200D01*
X175142857Y-96907200D02*
X175000000Y-96954819D01*
X175000000Y-96954819D02*
X174761905Y-96954819D01*
X175714286Y-96050057D02*
X175761905Y-96002438D01*
X175761905Y-96002438D02*
X175857143Y-95954819D01*
X175857143Y-95954819D02*
X176095238Y-95954819D01*
X176095238Y-95954819D02*
X176190476Y-96002438D01*
X176190476Y-96002438D02*
X176238095Y-96050057D01*
X176238095Y-96050057D02*
X176285714Y-96145295D01*
X176285714Y-96145295D02*
X176285714Y-96240533D01*
X176285714Y-96240533D02*
X176238095Y-96383390D01*
X176238095Y-96383390D02*
X175666667Y-96954819D01*
X175666667Y-96954819D02*
X176285714Y-96954819D01*
X172833333Y-96954819D02*
X172500000Y-96478628D01*
X172261905Y-96954819D02*
X172261905Y-95954819D01*
X172261905Y-95954819D02*
X172642857Y-95954819D01*
X172642857Y-95954819D02*
X172738095Y-96002438D01*
X172738095Y-96002438D02*
X172785714Y-96050057D01*
X172785714Y-96050057D02*
X172833333Y-96145295D01*
X172833333Y-96145295D02*
X172833333Y-96288152D01*
X172833333Y-96288152D02*
X172785714Y-96383390D01*
X172785714Y-96383390D02*
X172738095Y-96431009D01*
X172738095Y-96431009D02*
X172642857Y-96478628D01*
X172642857Y-96478628D02*
X172261905Y-96478628D01*
X173404762Y-96383390D02*
X173309524Y-96335771D01*
X173309524Y-96335771D02*
X173261905Y-96288152D01*
X173261905Y-96288152D02*
X173214286Y-96192914D01*
X173214286Y-96192914D02*
X173214286Y-96145295D01*
X173214286Y-96145295D02*
X173261905Y-96050057D01*
X173261905Y-96050057D02*
X173309524Y-96002438D01*
X173309524Y-96002438D02*
X173404762Y-95954819D01*
X173404762Y-95954819D02*
X173595238Y-95954819D01*
X173595238Y-95954819D02*
X173690476Y-96002438D01*
X173690476Y-96002438D02*
X173738095Y-96050057D01*
X173738095Y-96050057D02*
X173785714Y-96145295D01*
X173785714Y-96145295D02*
X173785714Y-96192914D01*
X173785714Y-96192914D02*
X173738095Y-96288152D01*
X173738095Y-96288152D02*
X173690476Y-96335771D01*
X173690476Y-96335771D02*
X173595238Y-96383390D01*
X173595238Y-96383390D02*
X173404762Y-96383390D01*
X173404762Y-96383390D02*
X173309524Y-96431009D01*
X173309524Y-96431009D02*
X173261905Y-96478628D01*
X173261905Y-96478628D02*
X173214286Y-96573866D01*
X173214286Y-96573866D02*
X173214286Y-96764342D01*
X173214286Y-96764342D02*
X173261905Y-96859580D01*
X173261905Y-96859580D02*
X173309524Y-96907200D01*
X173309524Y-96907200D02*
X173404762Y-96954819D01*
X173404762Y-96954819D02*
X173595238Y-96954819D01*
X173595238Y-96954819D02*
X173690476Y-96907200D01*
X173690476Y-96907200D02*
X173738095Y-96859580D01*
X173738095Y-96859580D02*
X173785714Y-96764342D01*
X173785714Y-96764342D02*
X173785714Y-96573866D01*
X173785714Y-96573866D02*
X173738095Y-96478628D01*
X173738095Y-96478628D02*
X173690476Y-96431009D01*
X173690476Y-96431009D02*
X173595238Y-96383390D01*
X180954819Y-101666666D02*
X180478628Y-101999999D01*
X180954819Y-102238094D02*
X179954819Y-102238094D01*
X179954819Y-102238094D02*
X179954819Y-101857142D01*
X179954819Y-101857142D02*
X180002438Y-101761904D01*
X180002438Y-101761904D02*
X180050057Y-101714285D01*
X180050057Y-101714285D02*
X180145295Y-101666666D01*
X180145295Y-101666666D02*
X180288152Y-101666666D01*
X180288152Y-101666666D02*
X180383390Y-101714285D01*
X180383390Y-101714285D02*
X180431009Y-101761904D01*
X180431009Y-101761904D02*
X180478628Y-101857142D01*
X180478628Y-101857142D02*
X180478628Y-102238094D01*
X179954819Y-101333332D02*
X179954819Y-100666666D01*
X179954819Y-100666666D02*
X180954819Y-101095237D01*
X195122493Y-113954819D02*
X195122493Y-114669104D01*
X195122493Y-114669104D02*
X195074874Y-114811961D01*
X195074874Y-114811961D02*
X194979636Y-114907200D01*
X194979636Y-114907200D02*
X194836779Y-114954819D01*
X194836779Y-114954819D02*
X194741541Y-114954819D01*
X195503446Y-113954819D02*
X196122493Y-113954819D01*
X196122493Y-113954819D02*
X195789160Y-114335771D01*
X195789160Y-114335771D02*
X195932017Y-114335771D01*
X195932017Y-114335771D02*
X196027255Y-114383390D01*
X196027255Y-114383390D02*
X196074874Y-114431009D01*
X196074874Y-114431009D02*
X196122493Y-114526247D01*
X196122493Y-114526247D02*
X196122493Y-114764342D01*
X196122493Y-114764342D02*
X196074874Y-114859580D01*
X196074874Y-114859580D02*
X196027255Y-114907200D01*
X196027255Y-114907200D02*
X195932017Y-114954819D01*
X195932017Y-114954819D02*
X195646303Y-114954819D01*
X195646303Y-114954819D02*
X195551065Y-114907200D01*
X195551065Y-114907200D02*
X195503446Y-114859580D01*
X189210839Y-90864819D02*
X189210839Y-91579104D01*
X189210839Y-91579104D02*
X189163220Y-91721961D01*
X189163220Y-91721961D02*
X189067982Y-91817200D01*
X189067982Y-91817200D02*
X188925125Y-91864819D01*
X188925125Y-91864819D02*
X188829887Y-91864819D01*
X189639411Y-90960057D02*
X189687030Y-90912438D01*
X189687030Y-90912438D02*
X189782268Y-90864819D01*
X189782268Y-90864819D02*
X190020363Y-90864819D01*
X190020363Y-90864819D02*
X190115601Y-90912438D01*
X190115601Y-90912438D02*
X190163220Y-90960057D01*
X190163220Y-90960057D02*
X190210839Y-91055295D01*
X190210839Y-91055295D02*
X190210839Y-91150533D01*
X190210839Y-91150533D02*
X190163220Y-91293390D01*
X190163220Y-91293390D02*
X189591792Y-91864819D01*
X189591792Y-91864819D02*
X190210839Y-91864819D01*
X174738095Y-109954819D02*
X174738095Y-110764342D01*
X174738095Y-110764342D02*
X174785714Y-110859580D01*
X174785714Y-110859580D02*
X174833333Y-110907200D01*
X174833333Y-110907200D02*
X174928571Y-110954819D01*
X174928571Y-110954819D02*
X175119047Y-110954819D01*
X175119047Y-110954819D02*
X175214285Y-110907200D01*
X175214285Y-110907200D02*
X175261904Y-110859580D01*
X175261904Y-110859580D02*
X175309523Y-110764342D01*
X175309523Y-110764342D02*
X175309523Y-109954819D01*
X175738095Y-110050057D02*
X175785714Y-110002438D01*
X175785714Y-110002438D02*
X175880952Y-109954819D01*
X175880952Y-109954819D02*
X176119047Y-109954819D01*
X176119047Y-109954819D02*
X176214285Y-110002438D01*
X176214285Y-110002438D02*
X176261904Y-110050057D01*
X176261904Y-110050057D02*
X176309523Y-110145295D01*
X176309523Y-110145295D02*
X176309523Y-110240533D01*
X176309523Y-110240533D02*
X176261904Y-110383390D01*
X176261904Y-110383390D02*
X175690476Y-110954819D01*
X175690476Y-110954819D02*
X176309523Y-110954819D01*
X165454819Y-100761904D02*
X166264342Y-100761904D01*
X166264342Y-100761904D02*
X166359580Y-100714285D01*
X166359580Y-100714285D02*
X166407200Y-100666666D01*
X166407200Y-100666666D02*
X166454819Y-100571428D01*
X166454819Y-100571428D02*
X166454819Y-100380952D01*
X166454819Y-100380952D02*
X166407200Y-100285714D01*
X166407200Y-100285714D02*
X166359580Y-100238095D01*
X166359580Y-100238095D02*
X166264342Y-100190476D01*
X166264342Y-100190476D02*
X165454819Y-100190476D01*
X166454819Y-99190476D02*
X166454819Y-99761904D01*
X166454819Y-99476190D02*
X165454819Y-99476190D01*
X165454819Y-99476190D02*
X165597676Y-99571428D01*
X165597676Y-99571428D02*
X165692914Y-99666666D01*
X165692914Y-99666666D02*
X165740533Y-99761904D01*
X179454819Y-101666666D02*
X178978628Y-101999999D01*
X179454819Y-102238094D02*
X178454819Y-102238094D01*
X178454819Y-102238094D02*
X178454819Y-101857142D01*
X178454819Y-101857142D02*
X178502438Y-101761904D01*
X178502438Y-101761904D02*
X178550057Y-101714285D01*
X178550057Y-101714285D02*
X178645295Y-101666666D01*
X178645295Y-101666666D02*
X178788152Y-101666666D01*
X178788152Y-101666666D02*
X178883390Y-101714285D01*
X178883390Y-101714285D02*
X178931009Y-101761904D01*
X178931009Y-101761904D02*
X178978628Y-101857142D01*
X178978628Y-101857142D02*
X178978628Y-102238094D01*
X178454819Y-101333332D02*
X178454819Y-100714285D01*
X178454819Y-100714285D02*
X178835771Y-101047618D01*
X178835771Y-101047618D02*
X178835771Y-100904761D01*
X178835771Y-100904761D02*
X178883390Y-100809523D01*
X178883390Y-100809523D02*
X178931009Y-100761904D01*
X178931009Y-100761904D02*
X179026247Y-100714285D01*
X179026247Y-100714285D02*
X179264342Y-100714285D01*
X179264342Y-100714285D02*
X179359580Y-100761904D01*
X179359580Y-100761904D02*
X179407200Y-100809523D01*
X179407200Y-100809523D02*
X179454819Y-100904761D01*
X179454819Y-100904761D02*
X179454819Y-101190475D01*
X179454819Y-101190475D02*
X179407200Y-101285713D01*
X179407200Y-101285713D02*
X179359580Y-101333332D01*
X197836779Y-94454819D02*
X197836779Y-93454819D01*
X197836779Y-93454819D02*
X198170112Y-94169104D01*
X198170112Y-94169104D02*
X198503445Y-93454819D01*
X198503445Y-93454819D02*
X198503445Y-94454819D01*
X198884398Y-93454819D02*
X199503445Y-93454819D01*
X199503445Y-93454819D02*
X199170112Y-93835771D01*
X199170112Y-93835771D02*
X199312969Y-93835771D01*
X199312969Y-93835771D02*
X199408207Y-93883390D01*
X199408207Y-93883390D02*
X199455826Y-93931009D01*
X199455826Y-93931009D02*
X199503445Y-94026247D01*
X199503445Y-94026247D02*
X199503445Y-94264342D01*
X199503445Y-94264342D02*
X199455826Y-94359580D01*
X199455826Y-94359580D02*
X199408207Y-94407200D01*
X199408207Y-94407200D02*
X199312969Y-94454819D01*
X199312969Y-94454819D02*
X199027255Y-94454819D01*
X199027255Y-94454819D02*
X198932017Y-94407200D01*
X198932017Y-94407200D02*
X198884398Y-94359580D01*
X186738095Y-88954819D02*
X186738095Y-89764342D01*
X186738095Y-89764342D02*
X186785714Y-89859580D01*
X186785714Y-89859580D02*
X186833333Y-89907200D01*
X186833333Y-89907200D02*
X186928571Y-89954819D01*
X186928571Y-89954819D02*
X187119047Y-89954819D01*
X187119047Y-89954819D02*
X187214285Y-89907200D01*
X187214285Y-89907200D02*
X187261904Y-89859580D01*
X187261904Y-89859580D02*
X187309523Y-89764342D01*
X187309523Y-89764342D02*
X187309523Y-88954819D01*
X188214285Y-89288152D02*
X188214285Y-89954819D01*
X187976190Y-88907200D02*
X187738095Y-89621485D01*
X187738095Y-89621485D02*
X188357142Y-89621485D01*
X165836779Y-94454819D02*
X165836779Y-93454819D01*
X165836779Y-93454819D02*
X166170112Y-94169104D01*
X166170112Y-94169104D02*
X166503445Y-93454819D01*
X166503445Y-93454819D02*
X166503445Y-94454819D01*
X166884398Y-93454819D02*
X167503445Y-93454819D01*
X167503445Y-93454819D02*
X167170112Y-93835771D01*
X167170112Y-93835771D02*
X167312969Y-93835771D01*
X167312969Y-93835771D02*
X167408207Y-93883390D01*
X167408207Y-93883390D02*
X167455826Y-93931009D01*
X167455826Y-93931009D02*
X167503445Y-94026247D01*
X167503445Y-94026247D02*
X167503445Y-94264342D01*
X167503445Y-94264342D02*
X167455826Y-94359580D01*
X167455826Y-94359580D02*
X167408207Y-94407200D01*
X167408207Y-94407200D02*
X167312969Y-94454819D01*
X167312969Y-94454819D02*
X167027255Y-94454819D01*
X167027255Y-94454819D02*
X166932017Y-94407200D01*
X166932017Y-94407200D02*
X166884398Y-94359580D01*
X172833333Y-104954819D02*
X172500000Y-104478628D01*
X172261905Y-104954819D02*
X172261905Y-103954819D01*
X172261905Y-103954819D02*
X172642857Y-103954819D01*
X172642857Y-103954819D02*
X172738095Y-104002438D01*
X172738095Y-104002438D02*
X172785714Y-104050057D01*
X172785714Y-104050057D02*
X172833333Y-104145295D01*
X172833333Y-104145295D02*
X172833333Y-104288152D01*
X172833333Y-104288152D02*
X172785714Y-104383390D01*
X172785714Y-104383390D02*
X172738095Y-104431009D01*
X172738095Y-104431009D02*
X172642857Y-104478628D01*
X172642857Y-104478628D02*
X172261905Y-104478628D01*
X173214286Y-104050057D02*
X173261905Y-104002438D01*
X173261905Y-104002438D02*
X173357143Y-103954819D01*
X173357143Y-103954819D02*
X173595238Y-103954819D01*
X173595238Y-103954819D02*
X173690476Y-104002438D01*
X173690476Y-104002438D02*
X173738095Y-104050057D01*
X173738095Y-104050057D02*
X173785714Y-104145295D01*
X173785714Y-104145295D02*
X173785714Y-104240533D01*
X173785714Y-104240533D02*
X173738095Y-104383390D01*
X173738095Y-104383390D02*
X173166667Y-104954819D01*
X173166667Y-104954819D02*
X173785714Y-104954819D01*
X167336779Y-119454819D02*
X167336779Y-118454819D01*
X167336779Y-118454819D02*
X167670112Y-119169104D01*
X167670112Y-119169104D02*
X168003445Y-118454819D01*
X168003445Y-118454819D02*
X168003445Y-119454819D01*
X168384398Y-118454819D02*
X169003445Y-118454819D01*
X169003445Y-118454819D02*
X168670112Y-118835771D01*
X168670112Y-118835771D02*
X168812969Y-118835771D01*
X168812969Y-118835771D02*
X168908207Y-118883390D01*
X168908207Y-118883390D02*
X168955826Y-118931009D01*
X168955826Y-118931009D02*
X169003445Y-119026247D01*
X169003445Y-119026247D02*
X169003445Y-119264342D01*
X169003445Y-119264342D02*
X168955826Y-119359580D01*
X168955826Y-119359580D02*
X168908207Y-119407200D01*
X168908207Y-119407200D02*
X168812969Y-119454819D01*
X168812969Y-119454819D02*
X168527255Y-119454819D01*
X168527255Y-119454819D02*
X168432017Y-119407200D01*
X168432017Y-119407200D02*
X168384398Y-119359580D01*
X189833333Y-101104819D02*
X189500000Y-100628628D01*
X189261905Y-101104819D02*
X189261905Y-100104819D01*
X189261905Y-100104819D02*
X189642857Y-100104819D01*
X189642857Y-100104819D02*
X189738095Y-100152438D01*
X189738095Y-100152438D02*
X189785714Y-100200057D01*
X189785714Y-100200057D02*
X189833333Y-100295295D01*
X189833333Y-100295295D02*
X189833333Y-100438152D01*
X189833333Y-100438152D02*
X189785714Y-100533390D01*
X189785714Y-100533390D02*
X189738095Y-100581009D01*
X189738095Y-100581009D02*
X189642857Y-100628628D01*
X189642857Y-100628628D02*
X189261905Y-100628628D01*
X190738095Y-100104819D02*
X190261905Y-100104819D01*
X190261905Y-100104819D02*
X190214286Y-100581009D01*
X190214286Y-100581009D02*
X190261905Y-100533390D01*
X190261905Y-100533390D02*
X190357143Y-100485771D01*
X190357143Y-100485771D02*
X190595238Y-100485771D01*
X190595238Y-100485771D02*
X190690476Y-100533390D01*
X190690476Y-100533390D02*
X190738095Y-100581009D01*
X190738095Y-100581009D02*
X190785714Y-100676247D01*
X190785714Y-100676247D02*
X190785714Y-100914342D01*
X190785714Y-100914342D02*
X190738095Y-101009580D01*
X190738095Y-101009580D02*
X190690476Y-101057200D01*
X190690476Y-101057200D02*
X190595238Y-101104819D01*
X190595238Y-101104819D02*
X190357143Y-101104819D01*
X190357143Y-101104819D02*
X190261905Y-101057200D01*
X190261905Y-101057200D02*
X190214286Y-101009580D01*
D13*
%TO.C,R4*%
X181930000Y-98500000D02*
X181930000Y-96500000D01*
X184070000Y-96500000D02*
X184070000Y-98500000D01*
%TO.C,R1*%
X187000000Y-106430000D02*
X189000000Y-106430000D01*
X189000000Y-108570000D02*
X187000000Y-108570000D01*
%TO.C,D1*%
X191000000Y-102900000D02*
X191000000Y-105100000D01*
X192950000Y-102900000D02*
X192950000Y-105100000D01*
%TO.C,R6*%
X187000000Y-103930000D02*
X189000000Y-103930000D01*
X189000000Y-106070000D02*
X187000000Y-106070000D01*
%TO.C,D2*%
X173500000Y-98900000D02*
X173500000Y-101100000D01*
X175450000Y-98900000D02*
X175450000Y-101100000D01*
%TO.C,R8*%
X170930000Y-94000000D02*
X170930000Y-92000000D01*
X173070000Y-92000000D02*
X173070000Y-94000000D01*
%TO.C,R7*%
X179430000Y-98500000D02*
X179430000Y-96500000D01*
X181570000Y-96500000D02*
X181570000Y-98500000D01*
%TO.C,J3*%
X173350000Y-119010000D02*
X193670000Y-119010000D01*
X173350000Y-121550000D02*
X173350000Y-119010000D01*
X174366000Y-119010000D02*
X174366000Y-116470000D01*
X174874000Y-119010000D02*
X174874000Y-116470000D01*
X176906000Y-119010000D02*
X176906000Y-116470000D01*
X177414000Y-119010000D02*
X177414000Y-116470000D01*
X179446000Y-119010000D02*
X179446000Y-116470000D01*
X179954000Y-119010000D02*
X179954000Y-116470000D01*
X181986000Y-119010000D02*
X181986000Y-116470000D01*
X182494000Y-119010000D02*
X182494000Y-116470000D01*
X184526000Y-119010000D02*
X184526000Y-116470000D01*
X185034000Y-119010000D02*
X185034000Y-116470000D01*
X187066000Y-119010000D02*
X187066000Y-116470000D01*
X187574000Y-119010000D02*
X187574000Y-116470000D01*
X189606000Y-119010000D02*
X189606000Y-116470000D01*
X190114000Y-119010000D02*
X190114000Y-116470000D01*
X192146000Y-119010000D02*
X192146000Y-116470000D01*
X192654000Y-119010000D02*
X192654000Y-116470000D01*
X193670000Y-113930000D02*
X193670000Y-115200000D01*
X193670000Y-119010000D02*
X193670000Y-121550000D01*
X193670000Y-121550000D02*
X173350000Y-121550000D01*
%TO.C,J2*%
X186930000Y-92680000D02*
X188200000Y-92680000D01*
X192010000Y-92680000D02*
X194550000Y-92680000D01*
X192010000Y-93696000D02*
X189470000Y-93696000D01*
X192010000Y-94204000D02*
X189470000Y-94204000D01*
X192010000Y-96236000D02*
X189470000Y-96236000D01*
X192010000Y-96744000D02*
X189470000Y-96744000D01*
X192010000Y-98776000D02*
X189470000Y-98776000D01*
X192010000Y-99284000D02*
X189470000Y-99284000D01*
X192010000Y-100300000D02*
X192010000Y-92680000D01*
X194550000Y-92680000D02*
X194550000Y-100300000D01*
X194550000Y-100300000D02*
X192010000Y-100300000D01*
%TO.C,U2*%
X180475000Y-102605000D02*
X177025000Y-102605000D01*
X180475000Y-102605000D02*
X182425000Y-102605000D01*
X180475000Y-111475000D02*
X178525000Y-111475000D01*
X180475000Y-111475000D02*
X182425000Y-111475000D01*
X177475000Y-102140000D02*
G75*
G02*
X177075000Y-102140000I-200000J0D01*
G01*
X177075000Y-102140000D02*
G75*
G02*
X177475000Y-102140000I200000J0D01*
G01*
%TO.C,U1*%
X167184000Y-96380000D02*
X167184000Y-106620000D01*
X170315000Y-96380000D02*
X170315000Y-106620000D01*
X171825000Y-96380000D02*
X167184000Y-96380000D01*
X171825000Y-96380000D02*
X171825000Y-106620000D01*
X171825000Y-99650000D02*
X170315000Y-99650000D01*
X171825000Y-103351000D02*
X170315000Y-103351000D01*
X171825000Y-106620000D02*
X167184000Y-106620000D01*
%TO.C,R3*%
X176930000Y-98500000D02*
X176930000Y-96500000D01*
X179070000Y-96500000D02*
X179070000Y-98500000D01*
%TO.C,U4*%
X173280000Y-94660000D02*
X173280000Y-93050000D01*
X173280000Y-94660000D02*
X175280000Y-94660000D01*
X173560000Y-88620000D02*
X185820000Y-88620000D01*
X173560000Y-94370000D02*
X173560000Y-88630000D01*
X185820000Y-88620000D02*
X185820000Y-94380000D01*
X185820000Y-94380000D02*
X173570000Y-94380000D01*
%TO.C,R2*%
X173000000Y-107430000D02*
X175000000Y-107430000D01*
X175000000Y-109570000D02*
X173000000Y-109570000D01*
%TO.C,R5*%
X187000000Y-101430000D02*
X189000000Y-101430000D01*
X189000000Y-103570000D02*
X187000000Y-103570000D01*
%TD*%
M02*
