%TF.GenerationSoftware,KiCad,Pcbnew,8.0.3*%
%TF.CreationDate,2024-07-06T18:49:22-04:00*%
%TF.ProjectId,Temperature Box Electronics,54656d70-6572-4617-9475-726520426f78,rev?*%
%TF.SameCoordinates,Original*%
%TF.FileFunction,Copper,L1,Top*%
%TF.FilePolarity,Positive*%
%FSLAX46Y46*%
G04 Gerber Fmt 4.6, Leading zero omitted, Abs format (unit mm)*
G04 Created by KiCad (PCBNEW 8.0.3) date 2024-07-06 18:49:22*
%MOMM*%
%LPD*%
G01*
G04 APERTURE LIST*
%TA.AperFunction,SMDPad,CuDef*%
%ADD10R,1.700000X1.400000*%
%TD*%
%TA.AperFunction,SMDPad,CuDef*%
%ADD11R,1.400000X1.700000*%
%TD*%
%TA.AperFunction,ComponentPad*%
%ADD12C,3.300000*%
%TD*%
%TA.AperFunction,SMDPad,CuDef*%
%ADD13R,1.700000X2.500000*%
%TD*%
%TA.AperFunction,SMDPad,CuDef*%
%ADD14R,2.500000X1.700000*%
%TD*%
%TA.AperFunction,SMDPad,CuDef*%
%ADD15R,2.000000X0.600000*%
%TD*%
%TA.AperFunction,ComponentPad*%
%ADD16R,2.000000X1.905000*%
%TD*%
%TA.AperFunction,ComponentPad*%
%ADD17O,2.000000X1.905000*%
%TD*%
%TA.AperFunction,ComponentPad*%
%ADD18R,1.500000X1.500000*%
%TD*%
%TA.AperFunction,ComponentPad*%
%ADD19C,1.500000*%
%TD*%
%TA.AperFunction,Conductor*%
%ADD20C,0.500000*%
%TD*%
G04 APERTURE END LIST*
D10*
%TO.P,R4,1*%
%TO.N,Net-(R3-Pad2)*%
X183000000Y-95800000D03*
%TO.P,R4,2*%
%TO.N,Net-(D1-K)*%
X183000000Y-99200000D03*
%TD*%
D11*
%TO.P,R1,1*%
%TO.N,Net-(D1-A)*%
X189700000Y-107500000D03*
%TO.P,R1,2*%
%TO.N,Net-(U2-IND1{slash}PA2)*%
X186300000Y-107500000D03*
%TD*%
D10*
%TO.P,D1,1,K*%
%TO.N,Net-(D1-K)*%
X192000000Y-102300000D03*
%TO.P,D1,2,A*%
%TO.N,Net-(D1-A)*%
X192000000Y-105700000D03*
%TD*%
D12*
%TO.P,H3,*%
%TO.N,*%
X197000000Y-119000000D03*
%TD*%
D11*
%TO.P,R6,1*%
%TO.N,Net-(U2-SCK{slash}PA3)*%
X186300000Y-105000000D03*
%TO.P,R6,2*%
%TO.N,Net-(J3-Pin_2)*%
X189700000Y-105000000D03*
%TD*%
D10*
%TO.P,D2,1,K*%
%TO.N,Net-(D1-K)*%
X174500000Y-98300000D03*
%TO.P,D2,2,A*%
%TO.N,Net-(D2-A)*%
X174500000Y-101700000D03*
%TD*%
%TO.P,R8,1*%
%TO.N,Net-(U4-VCC)*%
X172000000Y-94700000D03*
%TO.P,R8,2*%
%TO.N,Net-(U2-DH11{slash}PA1)*%
X172000000Y-91300000D03*
%TD*%
%TO.P,R7,1*%
%TO.N,Net-(U4-VCC)*%
X180500000Y-95800000D03*
%TO.P,R7,2*%
%TO.N,Net-(J3-Pin_8)*%
X180500000Y-99200000D03*
%TD*%
D13*
%TO.P,J3,1,Pin_1*%
%TO.N,Net-(J3-Pin_1)*%
X192400000Y-115200000D03*
%TO.P,J3,2,Pin_2*%
%TO.N,Net-(J3-Pin_2)*%
X189860000Y-115200000D03*
%TO.P,J3,3,Pin_3*%
%TO.N,Net-(J3-Pin_3)*%
X187320000Y-115200000D03*
%TO.P,J3,4,Pin_4*%
%TO.N,Net-(J3-Pin_4)*%
X184780000Y-115200000D03*
%TO.P,J3,5,Pin_5*%
%TO.N,Net-(J3-Pin_5)*%
X182240000Y-115200000D03*
%TO.P,J3,6,Pin_6*%
%TO.N,Net-(J3-Pin_6)*%
X179700000Y-115200000D03*
%TO.P,J3,7,Pin_7*%
%TO.N,Net-(D1-K)*%
X177160000Y-115200000D03*
%TO.P,J3,8,Pin_8*%
%TO.N,Net-(J3-Pin_8)*%
X174620000Y-115200000D03*
%TD*%
D14*
%TO.P,J2,1,Pin_1*%
%TO.N,Net-(J2-Pin_1)*%
X188200000Y-93950000D03*
%TO.P,J2,2,Pin_2*%
%TO.N,Net-(D1-K)*%
X188200000Y-96490000D03*
%TO.P,J2,3,Pin_3*%
%TO.N,Net-(J2-Pin_3)*%
X188200000Y-99030000D03*
%TD*%
D15*
%TO.P,U2,1,VCC*%
%TO.N,Net-(J3-Pin_8)*%
X178000000Y-103230000D03*
%TO.P,U2,2,A0/PA4*%
%TO.N,Net-(J3-Pin_4)*%
X178000000Y-104500000D03*
%TO.P,U2,3,RESET/PA5*%
%TO.N,Net-(J3-Pin_5)*%
X178000000Y-105770000D03*
%TO.P,U2,4,CS/PA6*%
%TO.N,Net-(J3-Pin_6)*%
X178000000Y-107040000D03*
%TO.P,U2,5,IND2/PA7*%
%TO.N,Net-(U2-IND2{slash}PA7)*%
X178000000Y-108310000D03*
%TO.P,U2,6,PB3/RXD*%
%TO.N,unconnected-(U2-PB3{slash}RXD-Pad6)*%
X178000000Y-109580000D03*
%TO.P,U2,7,PB2/TXD*%
%TO.N,unconnected-(U2-PB2{slash}TXD-Pad7)*%
X178000000Y-110850000D03*
%TO.P,U2,8,SDA/PB1*%
%TO.N,Net-(J3-Pin_3)*%
X182950000Y-110850000D03*
%TO.P,U2,9,PB0/SCL*%
%TO.N,unconnected-(U2-PB0{slash}SCL-Pad9)*%
X182950000Y-109580000D03*
%TO.P,U2,10,UPDI/PA0*%
%TO.N,Net-(J2-Pin_3)*%
X182950000Y-108310000D03*
%TO.P,U2,11,DH11/PA1*%
%TO.N,Net-(U2-DH11{slash}PA1)*%
X182950000Y-107040000D03*
%TO.P,U2,12,IND1/PA2*%
%TO.N,Net-(U2-IND1{slash}PA2)*%
X182950000Y-105770000D03*
%TO.P,U2,13,SCK/PA3*%
%TO.N,Net-(U2-SCK{slash}PA3)*%
X182950000Y-104500000D03*
%TO.P,U2,14,GND*%
%TO.N,Net-(D1-K)*%
X182950000Y-103230000D03*
%TD*%
D16*
%TO.P,U1,1,IN*%
%TO.N,Net-(J2-Pin_1)*%
X168555000Y-98960000D03*
D17*
%TO.P,U1,2,GND*%
%TO.N,Net-(D1-K)*%
X168555000Y-101500000D03*
%TO.P,U1,3,OUT*%
%TO.N,Net-(J3-Pin_8)*%
X168555000Y-104040000D03*
%TD*%
D10*
%TO.P,R3,1*%
%TO.N,Net-(J3-Pin_8)*%
X178000000Y-99200000D03*
%TO.P,R3,2*%
%TO.N,Net-(R3-Pad2)*%
X178000000Y-95800000D03*
%TD*%
D12*
%TO.P,H2,*%
%TO.N,*%
X197000000Y-91000000D03*
%TD*%
D18*
%TO.P,U4,1,VCC*%
%TO.N,Net-(U4-VCC)*%
X175880000Y-91500000D03*
D19*
%TO.P,U4,2,IO*%
%TO.N,Net-(U2-DH11{slash}PA1)*%
X178420000Y-91500000D03*
%TO.P,U4,3,NC*%
%TO.N,unconnected-(U4-NC-Pad3)*%
X180960000Y-91500000D03*
%TO.P,U4,4,GND*%
%TO.N,Net-(D1-K)*%
X183500000Y-91500000D03*
%TD*%
D12*
%TO.P,H1,*%
%TO.N,*%
X165000000Y-91000000D03*
%TD*%
D11*
%TO.P,R2,1*%
%TO.N,Net-(D2-A)*%
X172300000Y-108500000D03*
%TO.P,R2,2*%
%TO.N,Net-(U2-IND2{slash}PA7)*%
X175700000Y-108500000D03*
%TD*%
D12*
%TO.P,H4,*%
%TO.N,*%
X165000000Y-119000000D03*
%TD*%
D11*
%TO.P,R5,1*%
%TO.N,Net-(R3-Pad2)*%
X186300000Y-102500000D03*
%TO.P,R5,2*%
%TO.N,Net-(J3-Pin_1)*%
X189700000Y-102500000D03*
%TD*%
D20*
%TO.N,Net-(J2-Pin_1)*%
X184800000Y-88800000D02*
X170200000Y-88800000D01*
X188200000Y-92200000D02*
X184800000Y-88800000D01*
X170200000Y-88800000D02*
X168555000Y-90445000D01*
X168555000Y-90445000D02*
X168555000Y-98960000D01*
X188200000Y-93950000D02*
X188200000Y-92200000D01*
%TO.N,Net-(D1-K)*%
X184500000Y-91500000D02*
X183500000Y-91500000D01*
X177160000Y-117340000D02*
X176500000Y-118000000D01*
X185500000Y-95000000D02*
X185500000Y-92500000D01*
X174500000Y-98300000D02*
X174800000Y-98000000D01*
X183000000Y-99200000D02*
X183000000Y-103180000D01*
X185500000Y-92500000D02*
X184500000Y-91500000D01*
X174200000Y-98000000D02*
X174500000Y-98300000D01*
X188990000Y-96490000D02*
X188200000Y-96490000D01*
X173500000Y-98000000D02*
X174200000Y-98000000D01*
X173000000Y-118000000D02*
X172000000Y-117000000D01*
X172000000Y-112500000D02*
X166500000Y-107000000D01*
X182500000Y-98000000D02*
X183000000Y-98500000D01*
X192000000Y-102300000D02*
X192000000Y-99500000D01*
X168555000Y-101500000D02*
X170000000Y-101500000D01*
X192000000Y-99500000D02*
X188990000Y-96490000D01*
X183000000Y-98500000D02*
X183000000Y-99200000D01*
X166500000Y-103000000D02*
X168000000Y-101500000D01*
X188200000Y-96490000D02*
X186990000Y-96490000D01*
X168000000Y-101500000D02*
X168555000Y-101500000D01*
X174800000Y-98000000D02*
X182500000Y-98000000D01*
X170000000Y-101500000D02*
X173500000Y-98000000D01*
X176500000Y-118000000D02*
X173000000Y-118000000D01*
X183000000Y-103180000D02*
X182950000Y-103230000D01*
X177160000Y-115200000D02*
X177160000Y-117340000D01*
X186990000Y-96490000D02*
X185500000Y-95000000D01*
X172000000Y-117000000D02*
X172000000Y-112500000D01*
X166500000Y-107000000D02*
X166500000Y-103000000D01*
%TO.N,Net-(J3-Pin_8)*%
X180500000Y-99200000D02*
X178000000Y-99200000D01*
X171750000Y-111000000D02*
X168555000Y-107805000D01*
X174620000Y-111620000D02*
X174000000Y-111000000D01*
X178000000Y-99200000D02*
X178000000Y-103230000D01*
X168555000Y-107805000D02*
X168555000Y-104040000D01*
X178000000Y-99200000D02*
X175800000Y-99200000D01*
X177270000Y-103230000D02*
X178000000Y-103230000D01*
X174000000Y-111000000D02*
X174000000Y-106500000D01*
X175800000Y-99200000D02*
X174460000Y-100540000D01*
X174000000Y-106500000D02*
X177270000Y-103230000D01*
X174000000Y-111000000D02*
X171750000Y-111000000D01*
X174620000Y-115200000D02*
X174620000Y-111620000D01*
%TO.N,Net-(U2-DH11{slash}PA1)*%
X173000000Y-90300000D02*
X177220000Y-90300000D01*
X177220000Y-90300000D02*
X178420000Y-91500000D01*
X172000000Y-91300000D02*
X173000000Y-90300000D01*
X184800000Y-94300000D02*
X184800000Y-95800000D01*
X187250000Y-109000000D02*
X185350000Y-109000000D01*
X186000000Y-97000000D02*
X186000000Y-100000000D01*
X187500000Y-101500000D02*
X187500000Y-108750000D01*
X187500000Y-108750000D02*
X187250000Y-109000000D01*
X180420000Y-93500000D02*
X184000000Y-93500000D01*
X184800000Y-95800000D02*
X186000000Y-97000000D01*
X178420000Y-91500000D02*
X180420000Y-93500000D01*
X185000000Y-107500000D02*
X184540000Y-107040000D01*
X185350000Y-109000000D02*
X185000000Y-108650000D01*
X186000000Y-100000000D02*
X187500000Y-101500000D01*
X184540000Y-107040000D02*
X182950000Y-107040000D01*
X185000000Y-108650000D02*
X185000000Y-107500000D01*
X184000000Y-93500000D02*
X184800000Y-94300000D01*
%TO.N,Net-(D1-A)*%
X190200000Y-107500000D02*
X192000000Y-105700000D01*
X189700000Y-107500000D02*
X190200000Y-107500000D01*
%TO.N,Net-(D2-A)*%
X174500000Y-105000000D02*
X172300000Y-107200000D01*
X174500000Y-101700000D02*
X174500000Y-105000000D01*
X172300000Y-107200000D02*
X172300000Y-108500000D01*
%TO.N,Net-(J2-Pin_3)*%
X182950000Y-108310000D02*
X183670050Y-108310000D01*
X187539949Y-109700000D02*
X188200000Y-109039949D01*
X185060050Y-109700000D02*
X187539949Y-109700000D01*
X183670050Y-108310000D02*
X185060050Y-109700000D01*
X188200000Y-99030000D02*
X188000000Y-99230000D01*
X188200000Y-109039949D02*
X188200000Y-99030000D01*
%TO.N,Net-(J3-Pin_6)*%
X179800000Y-108140000D02*
X179800000Y-115100000D01*
X179800000Y-115100000D02*
X179700000Y-115200000D01*
X178000000Y-107040000D02*
X178700000Y-107040000D01*
X178700000Y-107040000D02*
X179800000Y-108140000D01*
%TO.N,Net-(J3-Pin_1)*%
X192400000Y-115200000D02*
X192400000Y-110100000D01*
X192400000Y-110100000D02*
X194500000Y-108000000D01*
X194500000Y-108000000D02*
X194500000Y-104500000D01*
X190700000Y-103500000D02*
X189700000Y-102500000D01*
X193500000Y-103500000D02*
X190700000Y-103500000D01*
X194500000Y-104500000D02*
X193500000Y-103500000D01*
%TO.N,Net-(J3-Pin_5)*%
X180500000Y-107340000D02*
X180500000Y-113000000D01*
X182240000Y-114740000D02*
X182240000Y-115200000D01*
X180500000Y-113000000D02*
X182240000Y-114740000D01*
X178930000Y-105770000D02*
X180500000Y-107340000D01*
X178000000Y-105770000D02*
X178930000Y-105770000D01*
%TO.N,Net-(J3-Pin_4)*%
X181200000Y-106700000D02*
X179000000Y-104500000D01*
X182490000Y-113000000D02*
X181200000Y-111710000D01*
X179000000Y-104500000D02*
X178000000Y-104500000D01*
X184780000Y-115200000D02*
X184780000Y-114280000D01*
X181200000Y-111710000D02*
X181200000Y-106700000D01*
X183500000Y-113000000D02*
X182490000Y-113000000D01*
X184780000Y-114280000D02*
X183500000Y-113000000D01*
%TO.N,Net-(J3-Pin_3)*%
X187320000Y-115200000D02*
X187320000Y-114800000D01*
X183370000Y-110850000D02*
X182950000Y-110850000D01*
X187320000Y-114800000D02*
X183370000Y-110850000D01*
%TO.N,Net-(J3-Pin_2)*%
X192950000Y-104200000D02*
X193500000Y-104750000D01*
X190500000Y-104200000D02*
X192950000Y-104200000D01*
X193500000Y-107500000D02*
X189860000Y-111140000D01*
X193500000Y-104750000D02*
X193500000Y-107500000D01*
X189860000Y-111140000D02*
X189860000Y-115200000D01*
X189700000Y-105000000D02*
X190500000Y-104200000D01*
%TO.N,Net-(U2-IND1{slash}PA2)*%
X184570000Y-105770000D02*
X186300000Y-107500000D01*
X182950000Y-105770000D02*
X184570000Y-105770000D01*
%TO.N,Net-(U2-IND2{slash}PA7)*%
X175700000Y-108500000D02*
X177810000Y-108500000D01*
X177810000Y-108500000D02*
X178000000Y-108310000D01*
%TO.N,Net-(R3-Pad2)*%
X183000000Y-95800000D02*
X181800000Y-97000000D01*
X183000000Y-95800000D02*
X183000000Y-96000000D01*
X179200000Y-97000000D02*
X178000000Y-95800000D01*
X183000000Y-96000000D02*
X185000000Y-98000000D01*
X185000000Y-101700000D02*
X185800000Y-102500000D01*
X185000000Y-98000000D02*
X185000000Y-101700000D01*
X181800000Y-97000000D02*
X179200000Y-97000000D01*
%TO.N,Net-(U2-SCK{slash}PA3)*%
X182950000Y-104500000D02*
X185300000Y-104500000D01*
X185300000Y-104500000D02*
X185800000Y-105000000D01*
%TO.N,Net-(U4-VCC)*%
X175880000Y-91880000D02*
X178000000Y-94000000D01*
X179500000Y-94000000D02*
X180500000Y-95000000D01*
X175880000Y-91500000D02*
X175880000Y-91880000D01*
X178000000Y-94000000D02*
X179500000Y-94000000D01*
X180500000Y-95000000D02*
X180500000Y-95800000D01*
X175880000Y-91500000D02*
X175200000Y-91500000D01*
X175200000Y-91500000D02*
X172000000Y-94700000D01*
%TO.N,Net-(D1-K)*%
X170000000Y-90500000D02*
X170000000Y-96000000D01*
X170000000Y-96000000D02*
X172750000Y-98750000D01*
X181500000Y-89500000D02*
X171000000Y-89500000D01*
X171000000Y-89500000D02*
X170000000Y-90500000D01*
X183500000Y-91500000D02*
X181500000Y-89500000D01*
X172750000Y-98750000D02*
X173500000Y-98000000D01*
%TD*%
M02*
